<svg width="226" height="35" viewBox="0 0 226 35" fill="none" xmlns="http://www.w3.org/2000/svg">
<path d="M5.03494 18.92L7.93894 10.928H7.98694L10.8429 18.92H5.03494ZM6.73894 8.864L0.0669375 26H2.39494L4.31494 20.84H11.5629L13.4349 26H15.9549L9.25894 8.864H6.73894ZM19.4294 8.864V26H21.4694V8.864H19.4294ZM26.7498 8.864V26H28.7898V8.864H26.7498ZM42.9658 8.864V26H45.2458V18.68H50.8138C51.3738 18.68 51.8218 18.768 52.1578 18.944C52.4938 19.104 52.7658 19.328 52.9738 19.616C53.1818 19.888 53.3338 20.216 53.4297 20.6C53.5258 20.968 53.6058 21.36 53.6698 21.776C53.7498 22.192 53.7978 22.616 53.8138 23.048C53.8298 23.48 53.8458 23.888 53.8618 24.272C53.8778 24.64 53.9098 24.976 53.9578 25.28C54.0218 25.584 54.1338 25.824 54.2938 26H56.8378C56.5978 25.712 56.4138 25.384 56.2858 25.016C56.1738 24.632 56.0858 24.232 56.0218 23.816C55.9578 23.4 55.9178 22.976 55.9018 22.544C55.8858 22.112 55.8618 21.688 55.8298 21.272C55.7818 20.856 55.7098 20.456 55.6138 20.072C55.5338 19.688 55.3978 19.344 55.2057 19.04C55.0298 18.72 54.7818 18.448 54.4618 18.224C54.1578 18 53.7578 17.84 53.2618 17.744V17.696C54.3018 17.408 55.0538 16.872 55.5178 16.088C55.9978 15.304 56.2378 14.392 56.2378 13.352C56.2378 11.96 55.7738 10.864 54.8458 10.064C53.9338 9.264 52.6618 8.864 51.0298 8.864H42.9658ZM49.9978 16.76H45.2458V10.784H50.9098C51.9818 10.784 52.7578 11.056 53.2378 11.6C53.7178 12.144 53.9578 12.848 53.9578 13.712C53.9578 14.336 53.8458 14.848 53.6218 15.248C53.4138 15.632 53.1258 15.944 52.7578 16.184C52.4058 16.408 51.9898 16.56 51.5098 16.64C51.0298 16.72 50.5258 16.76 49.9978 16.76ZM69.6754 18.608H62.5474C62.5794 18.128 62.6834 17.68 62.8594 17.264C63.0354 16.832 63.2754 16.456 63.5794 16.136C63.8834 15.816 64.2434 15.568 64.6594 15.392C65.0914 15.2 65.5714 15.104 66.0994 15.104C66.6114 15.104 67.0754 15.2 67.4914 15.392C67.9234 15.568 68.2914 15.816 68.5954 16.136C68.9154 16.44 69.1634 16.808 69.3394 17.24C69.5314 17.672 69.6434 18.128 69.6754 18.608ZM71.6434 22.064H69.6274C69.4514 22.88 69.0834 23.488 68.5234 23.888C67.9794 24.288 67.2754 24.488 66.4114 24.488C65.7394 24.488 65.1554 24.376 64.6594 24.152C64.1634 23.928 63.7554 23.632 63.4354 23.264C63.1154 22.88 62.8834 22.448 62.7394 21.968C62.5954 21.472 62.5314 20.952 62.5474 20.408H71.8354C71.8674 19.656 71.7954 18.864 71.6194 18.032C71.4594 17.2 71.1554 16.432 70.7074 15.728C70.2754 15.024 69.6914 14.448 68.9554 14C68.2354 13.536 67.3234 13.304 66.2194 13.304C65.3714 13.304 64.5874 13.464 63.8674 13.784C63.1634 14.104 62.5474 14.552 62.0194 15.128C61.5074 15.704 61.1074 16.384 60.8194 17.168C60.5314 17.952 60.3874 18.816 60.3874 19.76C60.4194 20.704 60.5554 21.576 60.7954 22.376C61.0514 23.176 61.4274 23.864 61.9234 24.44C62.4194 25.016 63.0274 25.464 63.7474 25.784C64.4834 26.104 65.3474 26.264 66.3394 26.264C67.7474 26.264 68.9154 25.912 69.8434 25.208C70.7714 24.504 71.3714 23.456 71.6434 22.064ZM77.1981 22.088H75.1581C75.1901 22.856 75.3501 23.512 75.6381 24.056C75.9261 24.584 76.3101 25.016 76.7901 25.352C77.2701 25.672 77.8221 25.904 78.4461 26.048C79.0701 26.192 79.7261 26.264 80.4141 26.264C81.0381 26.264 81.6621 26.2 82.2861 26.072C82.9261 25.96 83.4941 25.752 83.9901 25.448C84.5021 25.144 84.9101 24.744 85.2141 24.248C85.5341 23.752 85.6941 23.128 85.6941 22.376C85.6941 21.784 85.5741 21.288 85.3341 20.888C85.1101 20.488 84.8061 20.16 84.4221 19.904C84.0541 19.632 83.6221 19.416 83.1261 19.256C82.6461 19.096 82.1501 18.96 81.6381 18.848C81.1581 18.736 80.6781 18.632 80.1981 18.536C79.7181 18.424 79.2861 18.296 78.9021 18.152C78.5181 17.992 78.1981 17.8 77.9421 17.576C77.7021 17.336 77.5821 17.04 77.5821 16.688C77.5821 16.368 77.6621 16.112 77.8221 15.92C77.9821 15.712 78.1901 15.552 78.4461 15.44C78.7021 15.312 78.9821 15.224 79.2861 15.176C79.6061 15.128 79.9181 15.104 80.2221 15.104C80.5581 15.104 80.8861 15.144 81.2061 15.224C81.5421 15.288 81.8461 15.4 82.1181 15.56C82.3901 15.72 82.6141 15.936 82.7901 16.208C82.9661 16.464 83.0701 16.792 83.1021 17.192H85.1421C85.0941 16.44 84.9341 15.816 84.6621 15.32C84.3901 14.808 84.0221 14.408 83.5581 14.12C83.1101 13.816 82.5901 13.608 81.9981 13.496C81.4061 13.368 80.7581 13.304 80.0541 13.304C79.5101 13.304 78.9581 13.376 78.3981 13.52C77.8541 13.648 77.3581 13.856 76.9101 14.144C76.4781 14.416 76.1181 14.776 75.8301 15.224C75.5581 15.672 75.4221 16.208 75.4221 16.832C75.4221 17.632 75.6221 18.256 76.0221 18.704C76.4221 19.152 76.9181 19.504 77.5101 19.76C78.1181 20 78.7741 20.192 79.4781 20.336C80.1821 20.464 80.8301 20.616 81.4221 20.792C82.0301 20.952 82.5341 21.168 82.9341 21.44C83.3341 21.712 83.5341 22.112 83.5341 22.64C83.5341 23.024 83.4381 23.344 83.2461 23.6C83.0541 23.84 82.8061 24.024 82.5021 24.152C82.2141 24.28 81.8941 24.368 81.5421 24.416C81.1901 24.464 80.8541 24.488 80.5341 24.488C80.1181 24.488 79.7101 24.448 79.3101 24.368C78.9261 24.288 78.5741 24.16 78.2541 23.984C77.9501 23.792 77.7021 23.544 77.5101 23.24C77.3181 22.92 77.2141 22.536 77.1981 22.088ZM92.7821 13.592V9.872H90.7421V13.592H88.6301V15.392H90.7421V23.288C90.7421 23.864 90.7981 24.328 90.9101 24.68C91.0221 25.032 91.1901 25.304 91.4141 25.496C91.6541 25.688 91.9581 25.824 92.3261 25.904C92.7101 25.968 93.1661 26 93.6941 26H95.2541V24.2H94.3181C93.9981 24.2 93.7341 24.192 93.5261 24.176C93.3341 24.144 93.1821 24.088 93.0701 24.008C92.9581 23.928 92.8781 23.816 92.8301 23.672C92.7981 23.528 92.7821 23.336 92.7821 23.096V15.392H95.2541V13.592H92.7821ZM110.512 25.952C110.16 26.16 109.672 26.264 109.048 26.264C108.52 26.264 108.096 26.12 107.776 25.832C107.472 25.528 107.32 25.04 107.32 24.368C106.76 25.04 106.104 25.528 105.352 25.832C104.616 26.12 103.816 26.264 102.952 26.264C102.392 26.264 101.856 26.2 101.344 26.072C100.848 25.944 100.416 25.744 100.048 25.472C99.6804 25.2 99.3844 24.848 99.1604 24.416C98.9524 23.968 98.8484 23.432 98.8484 22.808C98.8484 22.104 98.9684 21.528 99.2084 21.08C99.4484 20.632 99.7604 20.272 100.144 20C100.544 19.712 100.992 19.496 101.488 19.352C102 19.208 102.52 19.088 103.048 18.992C103.608 18.88 104.136 18.8 104.632 18.752C105.144 18.688 105.592 18.608 105.976 18.512C106.36 18.4 106.664 18.248 106.888 18.056C107.112 17.848 107.224 17.552 107.224 17.168C107.224 16.72 107.136 16.36 106.96 16.088C106.8 15.816 106.584 15.608 106.312 15.464C106.056 15.32 105.76 15.224 105.424 15.176C105.104 15.128 104.784 15.104 104.464 15.104C103.6 15.104 102.88 15.272 102.304 15.608C101.728 15.928 101.416 16.544 101.368 17.456H99.3284C99.3604 16.688 99.5204 16.04 99.8084 15.512C100.096 14.984 100.48 14.56 100.96 14.24C101.44 13.904 101.984 13.664 102.592 13.52C103.216 13.376 103.88 13.304 104.584 13.304C105.144 13.304 105.696 13.344 106.24 13.424C106.8 13.504 107.304 13.672 107.752 13.928C108.2 14.168 108.56 14.512 108.832 14.96C109.104 15.408 109.24 15.992 109.24 16.712V23.096C109.24 23.576 109.264 23.928 109.312 24.152C109.376 24.376 109.568 24.488 109.888 24.488C110.064 24.488 110.272 24.448 110.512 24.368V25.952ZM107.2 19.592C106.944 19.784 106.608 19.928 106.192 20.024C105.776 20.104 105.336 20.176 104.872 20.24C104.424 20.288 103.968 20.352 103.504 20.432C103.04 20.496 102.624 20.608 102.256 20.768C101.888 20.928 101.584 21.16 101.344 21.464C101.12 21.752 101.008 22.152 101.008 22.664C101.008 23 101.072 23.288 101.2 23.528C101.344 23.752 101.52 23.936 101.728 24.08C101.952 24.224 102.208 24.328 102.496 24.392C102.784 24.456 103.088 24.488 103.408 24.488C104.08 24.488 104.656 24.4 105.136 24.224C105.616 24.032 106.008 23.8 106.312 23.528C106.616 23.24 106.84 22.936 106.984 22.616C107.128 22.28 107.2 21.968 107.2 21.68V19.592ZM124.683 26V13.592H122.643V20.6C122.643 21.16 122.563 21.68 122.403 22.16C122.259 22.624 122.035 23.032 121.731 23.384C121.427 23.736 121.043 24.008 120.579 24.2C120.131 24.392 119.595 24.488 118.971 24.488C118.187 24.488 117.571 24.264 117.123 23.816C116.675 23.368 116.451 22.76 116.451 21.992V13.592H114.411V21.752C114.411 22.424 114.475 23.04 114.603 23.6C114.747 24.144 114.987 24.616 115.323 25.016C115.659 25.416 116.099 25.728 116.643 25.952C117.187 26.16 117.867 26.264 118.683 26.264C119.595 26.264 120.387 26.088 121.059 25.736C121.731 25.368 122.283 24.8 122.715 24.032H122.763V26H124.683ZM129.675 13.592V26H131.715V20.48C131.715 19.68 131.795 18.976 131.955 18.368C132.115 17.744 132.371 17.216 132.723 16.784C133.075 16.352 133.539 16.024 134.115 15.8C134.691 15.576 135.387 15.464 136.203 15.464V13.304C135.099 13.272 134.187 13.496 133.467 13.976C132.747 14.456 132.139 15.2 131.643 16.208H131.595V13.592H129.675ZM150.731 25.952C150.379 26.16 149.891 26.264 149.267 26.264C148.739 26.264 148.315 26.12 147.995 25.832C147.691 25.528 147.539 25.04 147.539 24.368C146.979 25.04 146.323 25.528 145.571 25.832C144.835 26.12 144.035 26.264 143.171 26.264C142.611 26.264 142.075 26.2 141.563 26.072C141.067 25.944 140.635 25.744 140.267 25.472C139.899 25.2 139.603 24.848 139.379 24.416C139.171 23.968 139.067 23.432 139.067 22.808C139.067 22.104 139.187 21.528 139.427 21.08C139.667 20.632 139.979 20.272 140.363 20C140.763 19.712 141.211 19.496 141.707 19.352C142.219 19.208 142.739 19.088 143.267 18.992C143.827 18.88 144.355 18.8 144.851 18.752C145.363 18.688 145.811 18.608 146.195 18.512C146.579 18.4 146.883 18.248 147.107 18.056C147.331 17.848 147.443 17.552 147.443 17.168C147.443 16.72 147.355 16.36 147.179 16.088C147.019 15.816 146.803 15.608 146.531 15.464C146.275 15.32 145.979 15.224 145.643 15.176C145.323 15.128 145.003 15.104 144.683 15.104C143.819 15.104 143.099 15.272 142.523 15.608C141.947 15.928 141.635 16.544 141.587 17.456H139.547C139.579 16.688 139.739 16.04 140.027 15.512C140.315 14.984 140.699 14.56 141.179 14.24C141.659 13.904 142.203 13.664 142.811 13.52C143.435 13.376 144.099 13.304 144.803 13.304C145.363 13.304 145.915 13.344 146.459 13.424C147.019 13.504 147.523 13.672 147.971 13.928C148.419 14.168 148.779 14.512 149.051 14.96C149.323 15.408 149.459 15.992 149.459 16.712V23.096C149.459 23.576 149.483 23.928 149.531 24.152C149.595 24.376 149.787 24.488 150.107 24.488C150.283 24.488 150.491 24.448 150.731 24.368V25.952ZM147.419 19.592C147.163 19.784 146.827 19.928 146.411 20.024C145.995 20.104 145.555 20.176 145.091 20.24C144.643 20.288 144.187 20.352 143.723 20.432C143.259 20.496 142.843 20.608 142.475 20.768C142.107 20.928 141.803 21.16 141.563 21.464C141.339 21.752 141.227 22.152 141.227 22.664C141.227 23 141.291 23.288 141.419 23.528C141.563 23.752 141.739 23.936 141.947 24.08C142.171 24.224 142.427 24.328 142.715 24.392C143.003 24.456 143.307 24.488 143.627 24.488C144.299 24.488 144.875 24.4 145.355 24.224C145.835 24.032 146.227 23.8 146.531 23.528C146.835 23.24 147.059 22.936 147.203 22.616C147.347 22.28 147.419 21.968 147.419 21.68V19.592ZM154.63 13.592V26H156.67V18.992C156.67 18.432 156.742 17.92 156.886 17.456C157.046 16.976 157.278 16.56 157.582 16.208C157.886 15.856 158.262 15.584 158.71 15.392C159.174 15.2 159.718 15.104 160.342 15.104C161.126 15.104 161.742 15.328 162.19 15.776C162.638 16.224 162.862 16.832 162.862 17.6V26H164.902V17.84C164.902 17.168 164.83 16.56 164.686 16.016C164.558 15.456 164.326 14.976 163.99 14.576C163.654 14.176 163.214 13.864 162.67 13.64C162.126 13.416 161.446 13.304 160.63 13.304C158.79 13.304 157.446 14.056 156.598 15.56H156.55V13.592H154.63ZM172.798 13.592V9.872H170.758V13.592H168.646V15.392H170.758V23.288C170.758 23.864 170.814 24.328 170.926 24.68C171.038 25.032 171.206 25.304 171.43 25.496C171.67 25.688 171.974 25.824 172.342 25.904C172.726 25.968 173.182 26 173.71 26H175.27V24.2H174.334C174.014 24.2 173.75 24.192 173.542 24.176C173.35 24.144 173.198 24.088 173.086 24.008C172.974 23.928 172.894 23.816 172.846 23.672C172.814 23.528 172.798 23.336 172.798 23.096V15.392H175.27V13.592H172.798ZM180.784 22.088H178.744C178.776 22.856 178.936 23.512 179.224 24.056C179.512 24.584 179.896 25.016 180.376 25.352C180.856 25.672 181.408 25.904 182.032 26.048C182.656 26.192 183.312 26.264 184 26.264C184.624 26.264 185.248 26.2 185.872 26.072C186.512 25.96 187.08 25.752 187.576 25.448C188.088 25.144 188.496 24.744 188.8 24.248C189.12 23.752 189.28 23.128 189.28 22.376C189.28 21.784 189.16 21.288 188.92 20.888C188.696 20.488 188.392 20.16 188.008 19.904C187.64 19.632 187.208 19.416 186.712 19.256C186.232 19.096 185.736 18.96 185.224 18.848C184.744 18.736 184.264 18.632 183.784 18.536C183.304 18.424 182.872 18.296 182.488 18.152C182.104 17.992 181.784 17.8 181.528 17.576C181.288 17.336 181.168 17.04 181.168 16.688C181.168 16.368 181.248 16.112 181.408 15.92C181.568 15.712 181.776 15.552 182.032 15.44C182.288 15.312 182.568 15.224 182.872 15.176C183.192 15.128 183.504 15.104 183.808 15.104C184.144 15.104 184.472 15.144 184.792 15.224C185.128 15.288 185.432 15.4 185.704 15.56C185.976 15.72 186.2 15.936 186.376 16.208C186.552 16.464 186.656 16.792 186.688 17.192H188.728C188.68 16.44 188.52 15.816 188.248 15.32C187.976 14.808 187.608 14.408 187.144 14.12C186.696 13.816 186.176 13.608 185.584 13.496C184.992 13.368 184.344 13.304 183.64 13.304C183.096 13.304 182.544 13.376 181.984 13.52C181.44 13.648 180.944 13.856 180.496 14.144C180.064 14.416 179.704 14.776 179.416 15.224C179.144 15.672 179.008 16.208 179.008 16.832C179.008 17.632 179.208 18.256 179.608 18.704C180.008 19.152 180.504 19.504 181.096 19.76C181.704 20 182.36 20.192 183.064 20.336C183.768 20.464 184.416 20.616 185.008 20.792C185.616 20.952 186.12 21.168 186.52 21.44C186.92 21.712 187.12 22.112 187.12 22.64C187.12 23.024 187.024 23.344 186.832 23.6C186.64 23.84 186.392 24.024 186.088 24.152C185.8 24.28 185.48 24.368 185.128 24.416C184.776 24.464 184.44 24.488 184.12 24.488C183.704 24.488 183.296 24.448 182.896 24.368C182.512 24.288 182.16 24.16 181.84 23.984C181.536 23.792 181.288 23.544 181.096 23.24C180.904 22.92 180.8 22.536 180.784 22.088Z" fill="black"/>
<g clip-path="url(#clip0_133_5147)">
<path fill-rule="evenodd" clip-rule="evenodd" d="M202.157 8.67196C202.268 8.5621 202.418 8.50049 202.574 8.50049C202.731 8.50049 202.881 8.5621 202.992 8.67196L211.821 17.1C211.877 17.1502 211.922 17.2119 211.953 17.2808C211.984 17.3497 212 17.4244 212 17.5C212 17.5755 211.984 17.6502 211.953 17.7191C211.922 17.7881 211.877 17.8497 211.821 17.9L203.021 26.328C202.91 26.4372 202.76 26.4988 202.604 26.5C202.448 26.4993 202.298 26.4375 202.187 26.328C202.131 26.2777 202.085 26.2161 202.055 26.1471C202.024 26.0782 202.008 26.0035 202.008 25.928C202.008 25.8524 202.024 25.7777 202.055 25.7088C202.085 25.6399 202.131 25.5782 202.187 25.528L210.538 17.499L202.155 9.46996C202.055 9.3608 202 9.21807 202 9.07007C202 8.92207 202.056 8.77962 202.157 8.67096V8.67196ZM216.157 8.67196C216.268 8.5621 216.418 8.50049 216.574 8.50049C216.731 8.50049 216.881 8.5621 216.992 8.67196L225.821 17.1C225.877 17.1502 225.922 17.2119 225.953 17.2808C225.984 17.3497 226 17.4244 226 17.5C226 17.5755 225.984 17.6502 225.953 17.7191C225.922 17.7881 225.877 17.8497 225.821 17.9L217.021 26.328C216.91 26.4372 216.76 26.4988 216.604 26.5C216.448 26.4993 216.298 26.4375 216.187 26.328C216.131 26.2777 216.085 26.2161 216.055 26.1471C216.024 26.0782 216.008 26.0035 216.008 25.928C216.008 25.8524 216.024 25.7777 216.055 25.7088C216.085 25.6399 216.131 25.5782 216.187 25.528L224.538 17.499L216.155 9.46996C216.055 9.3608 216 9.21807 216 9.07007C216 8.92207 216.056 8.77962 216.157 8.67096V8.67196Z" fill="black"/>
</g>
<defs>
<clipPath id="clip0_133_5147">
<rect width="24" height="24" fill="white" transform="translate(202 5.5)"/>
</clipPath>
</defs>
</svg>
